<svg xmlns="http://www.w3.org/2000/svg" width="48" height="48" viewBox="0 0 48 48"><title>blockquote</title><g fill="#5C74CA" class="nc-icon-wrapper"><path d="M37 42a11 11 0 0 0 0-22c-0.32 0-0.63 0.02-0.94 0.05a31.8 31.8 0 0 1 4.79-13.52 1 1 0 0 0-0.85-1.53h-2a1 1 0 0 0-0.72 0.31c-5.14 5.41-11.28 14.26-11.28 25.69a11.01 11.01 0 0 0 11 11z" fill="#5C74CA"></path><path d="M11 42a11 11 0 0 0 0-22c-0.32 0-0.63 0.02-0.94 0.05a31.8 31.8 0 0 1 4.79-13.52 1 1 0 0 0-0.85-1.53h-2a1 1 0 0 0-0.72 0.31c-5.14 5.41-11.27 14.26-11.28 25.69a11.01 11.01 0 0 0 11 11z" fill="#5C74CA"></path></g></svg>