<svg xmlns="http://www.w3.org/2000/svg" height="64" width="64" viewBox="0 0 64 64"><title>gallery layout</title><g fill="#E5E7EB64" class="nc-icon-wrapper"><rect x="4" y="4" width="10" height="10" rx="1" fill="#E5E7EB64"></rect><rect x="19" y="4" width="10" height="10" rx="1" fill="#E5E7EB64"></rect><rect x="34" y="4" width="10" height="10" rx="1" fill="#E5E7EB64"></rect><rect data-color="color-2" x="49" y="4" width="10" height="10" rx="1" fill="#E5E7EB64"></rect><rect x="4" y="19" width="10" height="10" rx="1" fill="#E5E7EB64"></rect><rect x="19" y="19" width="10" height="10" rx="1" fill="#E5E7EB64"></rect><rect data-color="color-2" x="34" y="19" width="10" height="10" rx="1" fill="#E5E7EB64"></rect><rect x="49" y="19" width="10" height="10" rx="1" fill="#E5E7EB64"></rect><rect x="4" y="34" width="10" height="10" rx="1" fill="#E5E7EB64"></rect><rect data-color="color-2" x="19" y="34" width="10" height="10" rx="1" fill="#E5E7EB64"></rect><rect x="34" y="34" width="10" height="10" rx="1" fill="#E5E7EB64"></rect><rect x="49" y="34" width="10" height="10" rx="1" fill="#E5E7EB64"></rect><rect data-color="color-2" x="4" y="49" width="10" height="10" rx="1" fill="#E5E7EB64"></rect><rect x="19" y="49" width="10" height="10" rx="1" fill="#E5E7EB64"></rect><rect x="34" y="49" width="10" height="10" rx="1" fill="#E5E7EB64"></rect><rect x="49" y="49" width="10" height="10" rx="1" fill="#E5E7EB64"></rect></g></svg>